# xmcd CD database file
#
# Track frame offsets:
#	150
#	29536
#	50513
#	74756
#	87846
#	107528
#	126518
#	145268
#	168052
#	185384
#	199027
#	221154
#	242295
#	274333
#	298194
#
# Disc length: 4153 seconds
#
# Revision: 0
# Processed by: cddbd v1.5.1PL0 Copyright (c) Steve Scherf et al.
# Submitted via: CDex 1.51
#
DISCID=e810370f
DTITLE=Helen Shapiro and Humphrey Lyttleton and his Band - Helen and Humph ..."sing, swing together"....again!
DYEAR=1998
DGENRE=Jazz
TTITLE0=Shiny Stockings
TTITLE1=Sentimental Journey
TTITLE2=Someone To Watch Over Me
TTITLE3=Red Beans and Rice
TTITLE4=Maybe/Java Jive
TTITLE5=All Too Soon
TTITLE6=That Old Familiar Trouble
TTITLE7=Beale Street Blues
TTITLE8=Echoing The Blues
TTITLE9=Moving Into Spring
TTITLE10=I Must Tell Jesus
TTITLE11=Body and Soul
TTITLE12=Medley - On The Sunny Side of the Street/I Can't Give You Anything But Love/Exactly Like You/Take The 'A' Train
TTITLE13=How Long Has This Been Going On?
TTITLE14=Caravan
EXTD=YEAR: 1998
EXTT0=
EXTT1=
EXTT2=
EXTT3=
EXTT4=
EXTT5=
EXTT6=
EXTT7=
EXTT8=
EXTT9=
EXTT10=
EXTT11=
EXTT12=
EXTT13=
EXTT14=
PLAYORDER=
